<svg id="logo" data-name="logo" xmlns="http://www.w3.org/2000/svg" viewBox="0 0 254.29 74.64">
  <title>logo</title>
  <g>
    <path class="klyn-logo-path" d="M0,72V2.71A2.67,2.67,0,0,1,2.61,0H13.88a2.67,2.67,0,0,1,2.61,2.71v22L36.43,1.46A3.22,3.22,0,0,1,39.25,0H54.18c1.88,0,2.71,1.25,1.88,2.4C55.64,2.82,19.42,45.3,18,46.87a6.94,6.94,0,0,0-1.46,4.59V72a2.59,2.59,0,0,1-2.61,2.61H2.61A2.59,2.59,0,0,1,0,72Zm37.27.31L26.2,56.58a3.67,3.67,0,0,1,.21-4.81c1.15-1.25,5.43-6.36,6.26-7.2a2.49,2.49,0,0,1,4.18.11L55.64,71.29c.94,1.57-.21,3.24-2.3,3.35H42.69C39.88,74.53,38.41,73.9,37.27,72.34Z"/>
    <path class="klyn-logo-path" d="M74.22,71.71V2.92A3,3,0,0,1,77.14,0H88.42a3,3,0,0,1,2.92,2.92V58.46a1.48,1.48,0,0,0,1.36,1.46H118a2.83,2.83,0,0,1,2.92,2.82v9A2.86,2.86,0,0,1,118,74.64H77.14A3,3,0,0,1,74.22,71.71Z"/>
    <path class="klyn-logo-path" d="M121.82,3.24V3.13a2,2,0,0,1,2-3.13h9.91c3.24,0,3.45,1.15,3.76,1.67.21.31,4.18,8.14,8.14,15.45a5.58,5.58,0,0,1,0,5.43l-4.38,8c-1.05,2.09-3.34,2.09-4.28.11C130.28,18.58,122.14,3.65,121.82,3.24ZM145.41,72V48c0-4.7,2.61-11.28,8.35-21.19,4.08-7.41,12.64-24,13.05-24.64V2.3A3.73,3.73,0,0,1,170.47,0h10c2.29,0,3.23,1.25,2.19,3.13L160.86,43a10.25,10.25,0,0,0-1,4.17c-.11,1.78,0,24.85,0,24.85a2.59,2.59,0,0,1-2.61,2.61H148A2.59,2.59,0,0,1,145.41,72Z"/>
    <path class="klyn-logo-path" d="M254.29,2.92v68.9a2.61,2.61,0,0,1-2.71,2.61h-9.82a2.68,2.68,0,0,1-2.19-1.36c-.1,0-24.32-37.68-27.14-42.17l.21,11.9A2.59,2.59,0,0,1,210,45.41H199.9a2.61,2.61,0,0,1-2.71-2.61V2.92A2.76,2.76,0,0,1,199.9.21h10.23a2.35,2.35,0,0,1,1.88.94l25.26,42.07c1.36,2.4.73,2,.73.41l-.1-40.71A2.67,2.67,0,0,1,240.51.21h11.07A2.76,2.76,0,0,1,254.29,2.92Z"/>
  </g>
</svg>
